<svg width="900" height="620" viewBox="0 0 900 620" fill="none" xmlns="http://www.w3.org/2000/svg">
  <rect width="900" height="620" rx="52" fill="#0B1F24"/>
  <circle cx="226" cy="136" r="220" fill="#7BE0D6" fill-opacity=".32"/>
  <circle cx="700" cy="500" r="210" fill="#FF8E3C" fill-opacity=".25"/>
  <rect x="108" y="92" width="336" height="416" rx="38" fill="#102C34" stroke="#7BE0D6" stroke-opacity=".55" stroke-width="3"/>
  <circle cx="276" cy="250" r="92" fill="#F4EFE7"/>
  <circle cx="244" cy="232" r="10" fill="#102C34"/>
  <circle cx="308" cy="232" r="10" fill="#102C34"/>
  <path d="M226 292C256 326 302 326 332 292" stroke="#102C34" stroke-width="14" stroke-linecap="round"/>
  <path d="M166 420H386" stroke="#7BE0D6" stroke-width="16" stroke-linecap="round"/>
  <path d="M188 456H332" stroke="#F4EFE7" stroke-opacity=".5" stroke-width="12" stroke-linecap="round"/>
  <path d="M588 172V408" stroke="#FFC76D" stroke-width="22" stroke-linecap="round"/>
  <path d="M706 138V374" stroke="#FF8E3C" stroke-width="22" stroke-linecap="round"/>
  <circle cx="548" cy="408" r="52" fill="#FFC76D"/>
  <circle cx="666" cy="374" r="52" fill="#FF8E3C"/>
  <path d="M588 172C632 188 664 188 706 138" stroke="#F4EFE7" stroke-opacity=".7" stroke-width="18" stroke-linecap="round"/>
  <text x="536" y="512" fill="#F4EFE7" font-family="Space Grotesk, Arial, sans-serif" font-size="38" font-weight="700">28 FPS</text>
</svg>
