<svg width="900" height="620" viewBox="0 0 900 620" fill="none" xmlns="http://www.w3.org/2000/svg">
  <rect width="900" height="620" rx="52" fill="#10122C"/>
  <circle cx="740" cy="126" r="220" fill="#5072FF" fill-opacity=".32"/>
  <circle cx="180" cy="512" r="250" fill="#FF8E3C" fill-opacity=".18"/>
  <rect x="90" y="116" width="720" height="388" rx="42" fill="#151A3B" stroke="#F4EFE7" stroke-opacity=".13" stroke-width="3"/>
  <path d="M154 342C186 262 218 262 250 342C282 422 314 422 346 342C378 262 410 262 442 342C474 422 506 422 538 342C570 262 602 262 634 342C666 422 698 422 730 342" stroke="#7BE0D6" stroke-width="18" stroke-linecap="round"/>
  <path d="M168 210H428" stroke="#F4EFE7" stroke-opacity=".78" stroke-width="22" stroke-linecap="round"/>
  <path d="M168 250H332" stroke="#F4EFE7" stroke-opacity=".32" stroke-width="16" stroke-linecap="round"/>
  <circle cx="664" cy="220" r="74" fill="#FF8E3C"/>
  <path d="M626 222L654 250L708 190" stroke="#10122C" stroke-width="20" stroke-linecap="round" stroke-linejoin="round"/>
  <text x="164" y="454" fill="#FFC76D" font-family="Space Grotesk, Arial, sans-serif" font-size="54" font-weight="700">99.33%</text>
</svg>
