<svg width="1200" height="720" viewBox="0 0 1200 720" fill="none" xmlns="http://www.w3.org/2000/svg">
  <rect width="1200" height="720" rx="32" fill="#0B1425"/>
  <rect x="72" y="76" width="1056" height="568" rx="28" fill="#101D33" stroke="rgba(255,255,255,0.12)"/>
  <rect x="116" y="126" width="308" height="82" rx="18" fill="#FF8E3C"/>
  <rect x="452" y="126" width="632" height="82" rx="18" fill="#14233C"/>
  <rect x="116" y="238" width="968" height="318" rx="24" fill="#0D1728" stroke="rgba(255,255,255,0.08)"/>
  <rect x="152" y="276" width="252" height="22" rx="11" fill="#7BE0D6"/>
  <rect x="152" y="324" width="414" height="16" rx="8" fill="#253756"/>
  <rect x="152" y="354" width="364" height="16" rx="8" fill="#253756"/>
  <rect x="152" y="384" width="390" height="16" rx="8" fill="#253756"/>
  <rect x="152" y="430" width="250" height="88" rx="18" fill="#162744"/>
  <rect x="434" y="430" width="250" height="88" rx="18" fill="#162744"/>
  <rect x="716" y="430" width="332" height="88" rx="18" fill="#162744"/>
  <circle cx="948" cy="318" r="64" fill="#FF8E3C" fill-opacity="0.16"/>
  <circle cx="948" cy="318" r="38" fill="#7BE0D6" fill-opacity="0.3"/>
  <text x="154" y="178" fill="#09111F" font-family="Arial, sans-serif" font-size="36" font-weight="700">LLM Evaluator</text>
  <text x="476" y="176" fill="#F4EFE7" font-family="Arial, sans-serif" font-size="28" font-weight="600">Prompt, response, scoring, analytics</text>
  <text x="152" y="605" fill="#F4EFE7" font-family="Arial, sans-serif" font-size="44" font-weight="700">JWT auth, PostgreSQL, NumPy, Pandas, Django REST</text>
</svg>
